# xmcd CD database file
#
# Track frame offsets:
#	150
#	17350
#	31860
#	51347
#	69487
#	86635
#	111927
#	131610
#	157727
#	184577
#	201457
#	220870
#
# Disc length: 3216 seconds
#
# Revision: 0
# Processed by: cddbd v1.5.1PL0 Copyright (c) Steve Scherf et al.
# Submitted via: CDex 1.60beta1
#
DISCID=9e0c8e0c
DTITLE=Various Artist - Brazilian Blend
DYEAR=2002
DGENRE=Jazz
TTITLE0=Daybreak
TTITLE1=Sou Mais O Samba
TTITLE2=Samba Pro Toninho
TTITLE3=Fe Cega, Faca Amolada
TTITLE4=Chovendo Na Roseira
TTITLE5=Samba Novo
TTITLE6=Meio Do Caminho
TTITLE7=Agua Viva
TTITLE8=Paraty
TTITLE9=Baiaozim
TTITLE10=Balaio
TTITLE11=Maca
EXTD=YEAR: 2002
EXTT0=
EXTT1=
EXTT2=
EXTT3=
EXTT4=
EXTT5=
EXTT6=
EXTT7=
EXTT8=
EXTT9=
EXTT10=
EXTT11=
PLAYORDER=
